<svg width="149" height="70" viewBox="0 0 149 70" fill="none" xmlns="http://www.w3.org/2000/svg">
<g clip-path="url(#clip0_24_3)">
<path d="M99.7555 26.8007C98.1663 26.2903 96.5732 25.776 94.8834 25.2347C94.9375 26.1859 95.4673 26.9825 95.765 27.8216C96.4456 29.7356 95.8153 31.3365 93.9321 32.2607C92.0258 33.2003 89.8681 33.0069 87.9966 31.6613C86.0903 30.2963 84.2381 28.8849 82.3627 27.4929C81.0944 26.4063 81.3999 24.1211 82.9118 23.3786C83.7315 23.2472 84.3154 23.6261 84.8181 24.0128C86.709 25.4512 88.6462 26.851 90.7343 28.2779C90.1079 26.6538 89.3887 25.1226 88.8318 23.5488C88.681 23.1157 88.4645 22.6981 88.4104 22.2457C88.2054 20.5056 89.8565 19.4229 91.9833 20.0107C93.9785 20.5597 95.8694 21.3215 97.826 21.9479C98.0387 22.0175 98.2204 22.1645 98.4988 22.1219C95.9119 19.9913 93.6808 17.648 91.4419 15.3125C91.063 14.9181 90.7111 14.5159 90.7188 13.9939C90.6454 12.6521 90.541 11.3142 90.684 9.97633C90.7382 9.45431 90.6299 8.68482 91.8595 8.81243C94.0249 11.5888 96.4224 14.2375 99.1407 16.7123C99.4501 16.9946 99.7091 17.3078 99.9914 17.6055C99.423 18.8506 99.4114 20.088 99.9334 21.3524C100.262 22.149 100.343 22.9572 99.8251 23.7614C99.4423 24.3608 99.5351 25.0027 99.7517 25.633C99.8831 26.0197 100.185 26.4102 99.7517 26.8007H99.7555Z" fill="#27955C"/>
<path d="M83.2598 23.3786C81.9683 24.1442 81.6087 25.7876 82.3666 27.489C81.5197 27.4426 81.686 28.0381 81.5468 28.3552C80.5453 30.6598 79.6173 32.9837 78.6467 35.2961C77.8347 37.2295 76.1294 38.2928 73.9679 38.2426C71.7522 38.1884 70.1514 37.1212 69.4321 35.153C68.5235 32.6744 67.6496 30.1842 66.7177 27.5702C65.9366 28.042 65.2753 28.4403 64.618 28.8385C63.4966 29.0551 63.5198 28.3823 63.4309 27.868C63.2646 26.8703 63.5276 25.8766 63.5701 24.8828C64.2622 23.6957 65.5538 22.9455 66.9806 22.4351C68.5505 21.8706 70.2016 22.7174 70.7507 24.2525C71.7445 27.0327 72.7344 29.8168 73.7359 32.5971C73.906 33.0688 74.1458 33.5483 73.9254 34.0626C75.2285 30.6598 76.6785 27.2957 78.0783 23.9238C78.6661 22.5125 79.7101 21.9324 81.2259 22.0562C82.2699 22.1412 83.0549 22.497 83.2521 23.3786H83.2598Z" fill="#30A066"/>
<path d="M27.5431 31.9706C32.3805 29.0589 37.1019 26.0428 41.2935 22.5666C43.4318 20.7956 45.4812 18.9589 47.5731 17.1492C48.1029 17.5707 47.9637 18.112 47.9907 18.6186C48.0487 19.6858 47.8825 20.7608 48.1454 21.8203C48.4122 22.2611 48.1802 22.6787 47.7239 22.845C46.8848 23.1505 47.8361 23.2665 47.7703 23.4714C47.5499 24.674 47.9443 25.892 47.5886 27.0869C44.8509 27.984 42.1287 28.912 39.3678 29.7704C37.8288 30.2499 36.4754 30.8956 35.2187 31.7386C32.9992 33.2273 30.71 34.6542 28.2082 35.8567C27.2106 36.081 27.0559 35.4817 26.9477 34.9906C26.7118 33.9427 26.793 32.9064 27.547 31.9667L27.5431 31.9706Z" fill="#3EB376"/>
<path d="M47.5848 27.0907C47.1478 25.8263 47.1014 24.5619 47.5732 23.2936C47.8129 22.8179 48.4045 22.6787 48.9227 22.5202C51.4709 21.7275 53.9882 20.8807 56.5287 20.0803C57.7235 19.7052 58.8101 19.7632 59.7497 20.4399C60.6545 21.0934 60.7203 21.8976 60.3838 22.8141C59.7613 24.5039 58.9609 26.1472 58.2803 28.0265C59.4906 27.1874 60.5501 26.4721 61.6251 25.7722C62.267 25.3546 62.8122 24.7668 63.7905 24.7823C64.2274 25.7683 63.5933 26.7543 63.7905 27.7442C63.8833 28.216 63.6938 28.7651 64.618 28.8424C63.2491 29.7859 61.9267 30.7681 60.5076 31.6613C58.8797 32.6821 56.7761 32.7517 55.1095 31.9397C53.3927 31.1045 52.5768 29.55 53.0872 27.9414C53.3811 27.0134 53.791 26.1086 54.1931 25.0839C51.873 25.7915 49.7308 26.4411 47.5886 27.0907H47.5848Z" fill="#37AA6E"/>
<path d="M99.7555 26.8007C99.5158 25.7683 98.5955 24.7127 99.4075 23.7034C100.011 22.9571 99.9489 22.2109 99.6202 21.5999C99.1098 20.6487 99.1948 19.7129 99.1794 18.7578C99.1716 18.2783 99.191 17.764 99.9914 17.6094C104.21 21.395 108.634 25.022 113.587 28.2431C114.94 29.1247 116.286 30.014 117.636 30.9034C117.226 31.8392 117.164 32.7981 117.311 33.7726C117.369 34.1438 117.435 34.5343 116.851 34.7238C116 34.2327 115.068 33.8112 114.318 33.2428C110.718 30.5206 106.256 28.97 101.704 27.5238C101.039 27.3112 100.405 27.0443 99.7555 26.8046V26.8007Z" fill="#218C54"/>
<path d="M48.0526 22.0949C47.3721 21.9518 47.5809 21.511 47.577 21.1707C47.5577 19.8289 47.5693 18.491 47.5731 17.1492C51.9426 12.8068 55.8713 8.24014 59.2354 3.37958C60.1286 2.08807 61.5632 1.19871 63.5159 0.951233C64.0418 1.38045 63.891 1.9218 63.9026 2.42835C63.9181 3.02383 63.9026 3.61545 64.3705 4.12973C64.5522 4.93016 63.5585 5.24337 63.1795 5.81952C61.1958 8.82402 58.8719 11.6738 56.3933 14.4463C54.108 17.0023 51.7377 19.5041 48.8878 21.7082C48.6481 21.8938 48.4316 22.1026 48.0488 22.0949H48.0526Z" fill="#37A96E"/>
<path d="M116.854 34.7199C117.23 33.8886 116.735 33.0611 116.831 32.222C116.893 31.669 116.982 31.2011 117.636 30.8995C121.746 33.1925 125.941 35.3811 130.361 37.3029C131.873 37.9603 133.428 38.5597 134.939 39.217C136.304 39.8086 136.757 40.8217 136.127 41.7536C135.5 42.6778 134.174 42.9523 132.747 42.38C127.19 40.1566 121.854 37.6471 116.851 34.7238L116.854 34.7199Z" fill="#18804A"/>
<path d="M64.9699 65.7625C71.9262 65.7625 78.8865 65.7625 85.8428 65.7625C86.33 66.2691 86.2875 66.9226 86.2759 67.5374C86.2527 68.6008 86.8173 69.1073 87.7762 69.3471C88.6269 69.5636 89.4892 69.6177 90.3592 69.6177C93.2091 69.6177 96.055 69.5907 98.9049 69.6371C99.5197 69.6487 100.308 69.4128 100.618 70.2944C92.2114 70.2944 83.8012 70.2944 75.3948 70.2944C73.5194 70.0701 71.6362 70.248 69.757 70.1977C68.9372 70.1745 68.1136 70.2441 67.2938 70.1745C64.6141 69.9503 63.7518 68.2991 64.9699 65.7587V65.7625Z" fill="#2E9E64"/>
<path d="M64.9699 65.7625C64.9699 66.1453 64.9699 66.5281 64.9699 66.911C64.9699 69.5326 65.43 70.0121 68.1213 70.0508C70.0895 70.0817 72.0538 70.0508 74.022 70.0663C74.4861 70.0663 74.9887 69.9193 75.3948 70.2983C68.1484 70.2983 60.8982 70.2983 53.6518 70.2983C52.6541 69.7917 51.5869 70.1745 50.5545 70.0624C50.2219 70.0276 49.8855 70.0585 49.5491 70.0585C45.3768 70.0585 45.2415 69.9232 45.2531 65.7625C51.8267 65.7625 58.3963 65.7625 64.9699 65.7625Z" fill="#38AB6F"/>
<path d="M28.4403 65.7625C28.4403 65.8592 28.4403 65.952 28.4403 66.0487C28.2701 69.9812 28.6916 69.4747 32.4501 70.0469C33.6102 70.2248 34.8244 69.7917 35.9689 70.2944C27.9647 70.3099 19.9565 70.3331 11.9523 70.3254C10.3901 70.3254 9.34606 69.32 9.34993 68.0014C9.35379 66.648 10.3746 65.7239 11.9561 65.7239C17.4547 65.7239 22.9494 65.7471 28.448 65.7625H28.4403Z" fill="#46BE80"/>
<path d="M27.5432 31.9706C27.5703 32.8677 27.1256 33.7339 27.2648 34.6426C27.346 35.1723 27.3189 35.7176 28.2044 35.8606C23.63 38.5249 18.6264 40.6129 13.4874 42.5193C12.5478 42.8673 11.7821 42.5657 11.1944 41.9895C10.5641 41.3669 10.5448 40.6825 11.0359 39.9942C11.2795 39.6578 11.6584 39.4142 12.0915 39.2479C17.4973 37.1483 22.5782 34.6387 27.5393 31.9706H27.5432Z" fill="#48C182"/>
<path d="M64.4788 4.34627C63.775 4.28054 63.4966 3.96346 63.5082 3.42597C63.5276 2.60235 63.5159 1.77872 63.5159 0.955094C64.5871 0.599349 65.6852 0.641884 66.7525 0.900959C71.2727 1.99913 75.7969 1.98366 80.3326 0.982162C80.9668 1.32631 81.0325 1.85606 80.9977 2.37807C80.9475 3.10503 81.1717 3.77012 81.5545 4.41974C80.437 5.28203 78.9329 5.26657 77.5369 5.45218C73.3067 6.01286 69.1769 5.53338 65.1013 4.62468C64.8655 4.57055 64.6489 4.49321 64.4788 4.35401V4.34627Z" fill="#30A166"/>
<path d="M100.618 70.2983C100.208 69.9193 99.7014 70.0663 99.2374 70.0663C96.3914 70.0547 93.5493 70.0585 90.7034 70.0585C90.51 70.0585 90.3167 70.0585 90.1233 70.0585C86.1405 70.0585 85.8312 69.7453 85.8428 65.7625C91.6391 65.7625 97.4393 65.7625 103.236 65.7625C103.236 66.3387 103.236 66.9187 103.236 67.4948C103.236 69.5172 103.723 70.0353 105.78 70.0508C109.639 70.0779 113.498 70.0508 117.353 70.0663C117.864 70.0663 118.421 69.8923 118.881 70.2983C112.794 70.2983 106.704 70.2983 100.618 70.2983Z" fill="#26935A"/>
<path d="M137.546 70.1088C133.165 70.0934 128.784 70.0702 124.402 70.0586C121.325 70.0508 120.918 69.6525 120.918 66.6249C120.918 66.3348 120.918 66.0487 120.918 65.7587C126.173 65.7432 131.428 65.7278 136.68 65.7084C137.971 65.7046 138.837 66.3387 139.073 67.5645C139.305 68.7748 138.837 69.7299 137.542 70.1088H137.546Z" fill="#177E48"/>
<path d="M81.5739 4.34239C80.758 4.27279 80.6033 3.85517 80.6149 3.30222C80.6342 2.52113 80.7193 1.7323 80.3365 0.978279C83.3719 0.436928 86.2411 1.29149 87.7994 3.29449C89.2108 5.10801 90.5139 6.97181 91.8673 8.8124C91.0282 9.01348 91.0707 9.56256 91.063 10.073C91.0436 11.465 91.0475 12.8571 91.0398 14.2491C90.3051 14.28 90.0924 13.7967 89.7869 13.4448C87.985 11.3722 86.2488 9.26095 84.7833 7.03368C84.0177 5.86977 83.1863 4.84507 81.57 4.33852L81.5739 4.34239Z" fill="#28965D"/>
<path d="M46.3435 65.8824C46.3435 65.9791 46.3435 66.0719 46.3435 66.1686C46.1231 70.1011 46.6722 69.5945 51.525 70.1668C53.0254 70.3447 54.5914 69.9116 56.0724 70.4143C45.721 70.4298 35.3734 70.453 25.022 70.4452C23.0036 70.4452 21.6502 69.4399 21.6579 68.1213C21.6618 66.7679 22.9842 65.8438 25.0259 65.8438C32.1331 65.8438 39.2402 65.8669 46.3474 65.8824H46.3435Z" fill="#3FB578"/>
<path d="M118.498 70.4181C118.069 70.0392 117.539 70.1861 117.048 70.1861C114.063 70.1745 111.081 70.1784 108.096 70.1784C107.895 70.1784 107.69 70.1784 107.489 70.1784C103.309 70.1784 102.984 69.8652 102.996 65.8824C109.078 65.8824 115.161 65.8824 121.243 65.8824C121.243 66.4585 121.243 67.0386 121.243 67.6147C121.243 69.637 121.754 70.1552 123.911 70.1707C127.96 70.1977 132.005 70.1707 136.053 70.1861C136.591 70.1861 137.174 70.0121 137.654 70.4181C131.266 70.4181 124.882 70.4181 118.494 70.4181H118.498Z" fill="#1F8A52"/>
<path d="M53.6827 60.0938C53.6827 60.5192 53.3347 60.8672 52.9093 60.8672H39.1977C38.7723 60.8672 38.4243 60.5192 38.4243 60.0938V40.2765C38.4243 39.8512 38.7723 39.5031 39.1977 39.5031H40.8565C41.2819 39.5031 41.6299 39.8512 41.6299 40.2765V57.5688C41.6299 57.9941 41.9779 58.3422 42.4032 58.3422H52.9055C53.3308 58.3422 53.6788 58.6902 53.6788 59.1155V60.0938H53.6827Z" fill="white"/>
<path d="M70.7043 60.0938C70.7043 60.5192 70.3563 60.8672 69.9309 60.8672H68.45C68.0246 60.8672 67.6766 60.5192 67.6766 60.0938V59.9314C67.6766 59.5061 67.3905 59.3321 67.0424 59.5486L66.5823 59.8386C66.1222 60.1286 65.6775 60.3606 65.2444 60.5346C64.7378 60.755 64.154 60.9368 63.4966 61.0876C62.8392 61.2345 62.0659 61.3119 61.1804 61.3119C59.5486 61.3119 58.1682 60.8324 57.0352 59.8773C55.9022 58.9222 55.3338 57.7003 55.3338 56.2193C55.3338 55.0051 55.6277 54.0229 56.2154 53.2728C56.8032 52.5226 57.6423 51.931 58.7327 51.5018C59.8347 51.0726 61.1572 50.7787 62.7 50.6279C64.2429 50.4732 66.8994 50.3263 66.8994 50.3263C67.3247 50.3031 67.6727 50.191 67.6727 50.075C67.6727 49.9589 67.6341 49.522 67.5877 49.0967C67.5877 49.0967 67.549 48.7448 67.3054 48.3465C67.0618 47.9443 66.7138 47.6311 66.2614 47.3991C65.8283 47.1787 65.3101 47.0318 64.7069 46.9545C64.1037 46.8771 63.4695 46.8384 62.8122 46.8384C62.0118 46.8384 61.1224 46.9313 60.1402 47.1169C59.1581 47.3025 57.8356 47.7046 57.8356 47.7046C57.4296 47.8283 57.0584 47.9289 57.0159 47.9289C56.9733 47.9289 56.9347 47.5809 56.9347 47.1555V45.9607C56.9347 45.5353 57.2749 45.1177 57.6925 45.0288C57.6925 45.0288 58.3886 44.8857 59.5099 44.7117C60.6313 44.5377 61.7411 44.4526 62.8315 44.4526C64.1037 44.4526 65.2135 44.5454 66.1608 44.731C67.1043 44.9167 67.9241 45.2337 68.6162 45.6861C69.2968 46.127 69.8149 46.6954 70.1707 47.3953C70.5264 48.0952 70.6347 49.2204 70.6347 49.2204C70.6734 49.6457 70.7082 50.3379 70.7082 50.7632V60.0899L70.7043 60.0938ZM67.0154 57.3252C67.3789 57.1048 67.6766 56.575 67.6766 56.1497V53.2341C67.6766 52.8088 67.3286 52.4801 66.9032 52.5072C66.9032 52.5072 65.6543 52.5806 64.3976 52.6773C63.1409 52.774 62.1432 52.9132 61.4085 53.0949C60.5346 53.3153 59.827 53.6556 59.2857 54.1196C58.7443 54.5836 58.4775 55.2216 58.4775 56.0337C58.4775 56.9501 58.7907 57.6423 59.4171 58.1063C60.0436 58.5703 60.9987 58.8023 62.2824 58.8023C63.3497 58.8023 64.328 58.6167 65.2135 58.2494C66.0989 57.882 67.0154 57.3252 67.0154 57.3252Z" fill="white"/>
<path d="M91.1828 44.8432C91.6082 44.8432 91.8131 45.1603 91.6352 45.5469L84.9573 60.1634C84.7794 60.5501 84.2883 60.8672 83.863 60.8672H82.3472C81.9219 60.8672 81.4308 60.5501 81.2529 60.1634L74.6213 45.5469C74.4473 45.1603 74.6484 44.8432 75.0738 44.8432H76.8293C77.2546 44.8432 77.7419 45.1602 77.912 45.5508L82.8924 56.8882C83.0626 57.2788 83.341 57.2788 83.5111 56.8882L88.449 45.5508C88.6191 45.1602 89.1064 44.8432 89.5317 44.8432H91.1751H91.1828Z" fill="white"/>
<path d="M114.902 60.1518C115.064 60.5462 114.848 60.8672 114.422 60.8672H112.551C112.125 60.8672 111.65 60.5424 111.491 60.148L109.697 55.6315C109.538 55.2371 109.063 54.9123 108.638 54.9123H99.7555C99.3302 54.9123 98.8545 55.2371 98.696 55.6315L96.9018 60.148C96.7433 60.5424 96.2677 60.8672 95.8423 60.8672H94.1332C93.7078 60.8672 93.4913 60.5462 93.6537 60.1518L101.844 40.2185C102.006 39.8241 102.485 39.5031 102.911 39.5031H105.641C106.066 39.5031 106.546 39.8241 106.708 40.2185L114.898 60.1518H114.902ZM107.651 52.4762C108.077 52.4762 108.293 52.1553 108.135 51.7609L104.485 42.7087C104.326 42.3143 104.063 42.3143 103.905 42.7087L100.243 51.7609C100.084 52.1553 100.301 52.4762 100.726 52.4762H107.651Z" fill="white"/>
</g>
<defs>
<clipPath id="clip0_24_3">
<rect width="148.485" height="70" fill="white"/>
</clipPath>
</defs>
</svg>
